<svg width="36" height="36" viewBox="0 0 36 36" fill="none" xmlns="http://www.w3.org/2000/svg">
<g clip-path="url(#clip0_1189_712)">
<path d="M17.8384 1.36548C17.9144 0.975254 18.1421 0.631135 18.4716 0.408733C18.8012 0.186331 19.2055 0.103838 19.5958 0.179378C22.1178 0.667847 24.5067 1.68828 26.6033 3.17267C26.9281 3.4027 27.1482 3.75234 27.2153 4.14468C27.2823 4.53702 27.1907 4.93992 26.9607 5.26474C26.7307 5.58957 26.381 5.80971 25.9887 5.87674C25.5963 5.94377 25.1934 5.85219 24.8686 5.62217C23.1209 4.38365 21.1293 3.53182 19.0266 3.12343C18.6362 3.04777 18.2919 2.82025 18.0693 2.49086C17.8466 2.16147 17.7631 1.75587 17.8384 1.36548Z" fill="#189DFE"/>
<path d="M1.76658 10.473C1.89621 10.0968 2.16997 9.78749 2.52764 9.61315C2.88531 9.4388 3.29759 9.41369 3.67377 9.54332C4.04996 9.67295 4.35925 9.94671 4.53359 10.3044C4.70793 10.662 4.73305 11.0743 4.60342 11.4505C3.90572 13.4758 3.64763 15.6264 3.84636 17.7592C3.86839 17.9573 3.85074 18.1577 3.79445 18.3488C3.73816 18.54 3.64435 18.718 3.51851 18.8724C3.39267 19.0269 3.23731 19.1548 3.06151 19.2485C2.88571 19.3423 2.69299 19.4001 2.4946 19.4186C2.29622 19.4371 2.09614 19.4158 1.90605 19.3561C1.71596 19.2964 1.53967 19.1994 1.38747 19.0708C1.23528 18.9422 1.11023 18.7846 1.01962 18.6072C0.929014 18.4297 0.87467 18.236 0.85976 18.0373C0.621179 15.4801 0.930318 12.9013 1.76658 10.473Z" fill="#189DFE"/>
<path d="M26.1526 25.4142C27.2763 24.7655 28.638 25.7529 28.3714 27.0223C28.1991 27.8483 27.8541 28.6285 27.3592 29.3119C26.8642 29.9953 26.2304 30.5663 25.4993 30.9876C24.7689 31.4101 23.9575 31.6735 23.1182 31.7604C22.2789 31.8474 21.4307 31.756 20.6292 31.4923C19.4501 31.1061 19.2397 29.5596 20.207 28.8591L20.3454 28.7688L26.1526 25.4142Z" fill="#189DFE"/>
<path d="M10.4992 5.00688C12.2633 3.98838 14.4319 4.30041 15.8397 5.63187L16.0277 5.8195L16.0704 5.86936C17.9688 5.85044 19.8448 6.28152 21.5446 7.12729C23.2443 7.97306 24.7196 9.20946 25.8494 10.7352L26.1011 11.087L26.3425 11.4482L28.5407 15.2557L28.67 15.4166C29.4005 16.2711 30.4244 16.8212 31.5401 16.9587L31.8448 16.9854L32.1295 16.9925C33.6119 16.9802 34.1814 18.8666 33.0377 19.6967L32.8915 19.7915L12.1069 31.7915C10.7715 32.5625 9.28216 31.0598 10.064 29.732C10.3973 29.1662 10.6026 28.5342 10.6657 27.8805C10.7287 27.2268 10.6479 26.5673 10.4289 25.9481L10.349 25.7466L8.12276 21.8877C7.22238 20.1453 6.76281 18.2087 6.78427 16.2475C6.80573 14.2863 7.30758 12.3603 8.24589 10.638L8.45855 10.2623L8.43929 10.199C8.17456 9.31607 8.18705 8.37323 8.47507 7.49766C8.76308 6.6221 9.31276 5.85597 10.0499 5.30265L10.2736 5.14407L10.4992 5.00688Z" fill="#189DFE"/>
</g>
<defs>
<clipPath id="clip0_1189_712">
<rect width="36" height="36" fill="white"/>
</clipPath>
</defs>
</svg>
